<?xml version="1.0" encoding="UTF-8" standalone="no" ?>
<!DOCTYPE svg PUBLIC "-//W3C//DTD SVG 1.1//EN" "http://www.w3.org/Graphics/SVG/1.1/DTD/svg11.dtd">
<svg xmlns="http://www.w3.org/2000/svg" xmlns:xlink="http://www.w3.org/1999/xlink" version="1.1" width="1280" height="1024" viewBox="0 0 1280 1024" xml:space="preserve">
<desc>Created with Fabric.js 5.3.0</desc>
<defs>
</defs>
<g transform="matrix(1 0 0 1 640 512)" id="background-logo"  >
<rect style="stroke: none; stroke-width: 0; stroke-dasharray: none; stroke-linecap: butt; stroke-dashoffset: 0; stroke-linejoin: miter; stroke-miterlimit: 4; fill: rgb(220,231,242); fill-rule: nonzero; opacity: 1;"  paint-order="stroke"  x="-640" y="-512" rx="0" ry="0" width="1280" height="1024" />
</g>
<g transform="matrix(1.9211538461538462 0 0 1.9211538461538462 640 385.98897850019034)" id="logo-logo"  >
<g style=""  paint-order="stroke"   >
		<g transform="matrix(1.0987782907881312 0 0 -1.0987782907881314 -1.7053026e-13 -78.51583983616374)"  >
<path style="stroke: none; stroke-width: 1; stroke-dasharray: none; stroke-linecap: butt; stroke-dashoffset: 0; stroke-linejoin: miter; stroke-miterlimit: 4; fill: rgb(19,93,135); fill-rule: nonzero; opacity: 1;"  paint-order="stroke"  transform=" translate(-11.853499999999999, 7.3580000000000005)" d="M 0 0 L 11.854 -17.723 L 23.707 0 L 13.405 -4.205 L 10.301 -4.205 Z M 15.267 -27.393 L 8.44 -27.393 L -14.289 6.591999999999999 L -9.324 12.677 L 11.854000000000001 4.032 L 33.031 12.677 L 37.995999999999995 6.592 z" stroke-linecap="round" />
</g>
		<g transform="matrix(1.0987782907881312 0 0 -1.0987782907881314 0.0002197556579517368 -101.13583911947367)"  >
<path style="stroke: none; stroke-width: 1; stroke-dasharray: none; stroke-linecap: butt; stroke-dashoffset: 0; stroke-linejoin: miter; stroke-miterlimit: 4; fill: rgb(19,93,135); fill-rule: nonzero; opacity: 1;"  paint-order="stroke"  transform=" translate(5.532, 0)" d="M 0 0 C 0 3.056 -2.477 5.532 -5.532 5.532 C -8.587 5.532 -11.064 3.056 -11.064 0 C -11.064 -3.056 -8.587 -5.532 -5.532 -5.532 C -2.477 -5.532 0 -3.056 0 0" stroke-linecap="round" />
</g>
		<g transform="matrix(1.0987782907881312 0 0 -1.0987782907881314 -1.7053026e-13 78.51638922530915)"  >
<path style="stroke: none; stroke-width: 1; stroke-dasharray: none; stroke-linecap: butt; stroke-dashoffset: 0; stroke-linejoin: miter; stroke-miterlimit: 4; fill: rgb(19,93,135); fill-rule: nonzero; opacity: 1;"  paint-order="stroke"  transform=" translate(11.853499999999997, -7.358500000000003)" d="M 0 0 L -11.854 17.723 L -23.707 0 L -13.405 4.205 L -10.300999999999998 4.205 z M -15.267 27.393 L -8.439 27.393 L 14.289000000000001 -6.591999999999999 L 9.324000000000002 -12.675999999999998 L -11.854 -4.030999999999999 L -33.031 -12.675999999999998 L -37.995999999999995 -6.591999999999999 z" stroke-linecap="round" />
</g>
		<g transform="matrix(1.0987782907881312 0 0 -1.0987782907881314 -0.00021975565817911047 101.13583911947367)"  >
<path style="stroke: none; stroke-width: 1; stroke-dasharray: none; stroke-linecap: butt; stroke-dashoffset: 0; stroke-linejoin: miter; stroke-miterlimit: 4; fill: rgb(19,93,135); fill-rule: nonzero; opacity: 1;"  paint-order="stroke"  transform=" translate(-5.532, -0.001000000000000334)" d="M 0 0 C 0 -3.055 2.477 -5.531 5.532 -5.531 C 8.587 -5.531 11.064 -3.0549999999999997 11.064 0 C 11.064 3.057 8.587 5.533 5.532 5.533 C 2.477 5.533 0 3.057 0 0" stroke-linecap="round" />
</g>
		<g transform="matrix(1.0987782907881312 0 0 -1.0987782907881314 78.51638922530896 2.842171e-14)"  >
<path style="stroke: none; stroke-width: 1; stroke-dasharray: none; stroke-linecap: butt; stroke-dashoffset: 0; stroke-linejoin: miter; stroke-miterlimit: 4; fill: rgb(19,93,135); fill-rule: nonzero; opacity: 1;"  paint-order="stroke"  transform=" translate(7.358499999999999, 11.8535)" d="M 0 0 L -17.723 -11.854 L 0 -23.707 L -4.205 -13.405 L -4.205 -10.300999999999998 z M -27.393 -15.267 L -27.393 -8.439 L 6.592 14.289 L 12.676 9.324 L 4.031 -11.854 L 12.676 -33.031 L 6.592 -37.996 Z" stroke-linecap="round" />
</g>
		<g transform="matrix(1.0987782907881312 0 0 -1.0987782907881314 101.1358391194737 0.00021975565820753218)"  >
<path style="stroke: none; stroke-width: 1; stroke-dasharray: none; stroke-linecap: butt; stroke-dashoffset: 0; stroke-linejoin: miter; stroke-miterlimit: 4; fill: rgb(19,93,135); fill-rule: nonzero; opacity: 1;"  paint-order="stroke"  transform=" translate(0.001000000000000334, -5.532)" d="M 0 0 C 3.055 0 5.531 2.477 5.531 5.532 C 5.531 8.587 3.0549999999999997 11.064 0 11.064 C -3.057 11.064 -5.533 8.587 -5.533 5.532 C -5.533 2.477 -3.057 0 0 0" stroke-linecap="round" />
</g>
		<g transform="matrix(1.0987782907881312 0 0 -1.0987782907881314 -78.51638922530935 8.526513e-14)"  >
<path style="stroke: none; stroke-width: 1; stroke-dasharray: none; stroke-linecap: butt; stroke-dashoffset: 0; stroke-linejoin: miter; stroke-miterlimit: 4; fill: rgb(19,93,135); fill-rule: nonzero; opacity: 1;"  paint-order="stroke"  transform=" translate(-7.358500000000003, -11.853499999999997)" d="M 0 0 L 17.723 11.854 L 0 23.707 L 4.205 13.405 L 4.205 10.301 Z M 27.393 15.267 L 27.393 8.439 L -6.591999999999999 -14.289000000000001 L -12.675999999999998 -9.324000000000002 L -4.030999999999999 11.854 L -12.675999999999998 33.031 L -6.591999999999999 37.995999999999995 z" stroke-linecap="round" />
</g>
		<g transform="matrix(1.0987782907881312 0 0 -1.0987782907881314 -101.1358391194737 -0.00021975565820753218)"  >
<path style="stroke: none; stroke-width: 1; stroke-dasharray: none; stroke-linecap: butt; stroke-dashoffset: 0; stroke-linejoin: miter; stroke-miterlimit: 4; fill: rgb(19,93,135); fill-rule: nonzero; opacity: 1;"  paint-order="stroke"  transform=" translate(-0.001000000000000334, 5.532)" d="M 0 0 C -3.055 0 -5.531 -2.477 -5.531 -5.532 C -5.531 -8.587 -3.0549999999999997 -11.064 0 -11.064 C 3.057 -11.064 5.533 -8.587 5.533 -5.532 C 5.533 -2.477 3.057 0 0 0" stroke-linecap="round" />
</g>
		<g transform="matrix(1.0987782907881312 0 0 -1.0987782907881314 62.42005641006648 -62.42082555487016)"  >
<path style="stroke: none; stroke-width: 1; stroke-dasharray: none; stroke-linecap: butt; stroke-dashoffset: 0; stroke-linejoin: miter; stroke-miterlimit: 4; fill: rgb(19,93,135); fill-rule: nonzero; opacity: 1;"  paint-order="stroke"  transform=" translate(-9.459000000000001, 7.303000000000004)" d="M 0 0 L -4.15 -20.913 L 16.762999999999998 -16.764 L 6.504999999999999 -12.451999999999998 L 4.309999999999999 -10.256999999999998 z M -8.575 -30.164 L -13.402 -25.337000000000003 L -5.443 14.764999999999993 L 2.37 15.557999999999993 L 11.232 -5.530000000000008 L 32.32 -14.393000000000008 L 31.528 -22.206000000000007 z" stroke-linecap="round" />
</g>
		<g transform="matrix(1.0987782907881312 0 0 -1.0987782907881314 71.51409493377446 -71.51311977996124)"  >
<path style="stroke: none; stroke-width: 1; stroke-dasharray: none; stroke-linecap: butt; stroke-dashoffset: 0; stroke-linejoin: miter; stroke-miterlimit: 4; fill: rgb(19,93,135); fill-rule: nonzero; opacity: 1;"  paint-order="stroke"  transform=" translate(3.911999999999999, -3.911312510848183)" d="M 0 0 C 2.16 2.16 2.16 5.663 0 7.823 C -2.16 9.983 -5.663 9.984 -7.824 7.823 C -9.984 5.663 -9.984 2.16 -7.824 0 C -5.663 -2.161 -2.1609999999999996 -2.161 0 0" stroke-linecap="round" />
</g>
		<g transform="matrix(1.0987782907881312 0 0 -1.0987782907881314 -62.42005641006671 62.42082555487005)"  >
<path style="stroke: none; stroke-width: 1; stroke-dasharray: none; stroke-linecap: butt; stroke-dashoffset: 0; stroke-linejoin: miter; stroke-miterlimit: 4; fill: rgb(19,93,135); fill-rule: nonzero; opacity: 1;"  paint-order="stroke"  transform=" translate(9.4585, -7.304)" d="M 0 0 L 4.15 20.913 L -16.762999999999998 16.764 L -6.504999999999999 12.451999999999998 L -4.309999999999999 10.256999999999998 z M 8.575 30.165 L 13.402 25.337 L 5.443 -14.764999999999997 L -2.37 -15.556999999999997 L -11.232 5.531000000000004 L -32.319 14.394000000000004 L -31.528000000000002 22.206000000000003 z" stroke-linecap="round" />
</g>
		<g transform="matrix(1.0987782907881312 0 0 -1.0987782907881314 -71.51430096662403 71.51362795300659)"  >
<path style="stroke: none; stroke-width: 1; stroke-dasharray: none; stroke-linecap: butt; stroke-dashoffset: 0; stroke-linejoin: miter; stroke-miterlimit: 4; fill: rgb(19,93,135); fill-rule: nonzero; opacity: 1;"  paint-order="stroke"  transform=" translate(-3.912312489151817, 3.9108750000050225)" d="M 0 0 C -2.16 -2.16 -2.16 -5.662 0.001 -7.823 C 2.161 -9.982 5.664000000000001 -9.983 7.824000000000001 -7.823 C 9.985000000000001 -5.662000000000001 9.984000000000002 -2.1590000000000007 7.825000000000001 0.0009999999999994458 C 5.664 2.161 2.162 2.161 0 0" stroke-linecap="round" />
</g>
		<g transform="matrix(1.0987782907881312 0 0 -1.0987782907881314 62.42137494401521 62.4206057992121)"  >
<path style="stroke: none; stroke-width: 1; stroke-dasharray: none; stroke-linecap: butt; stroke-dashoffset: 0; stroke-linejoin: miter; stroke-miterlimit: 4; fill: rgb(19,93,135); fill-rule: nonzero; opacity: 1;"  paint-order="stroke"  transform=" translate(7.303500000000003, 9.459499999999998)" d="M 0 0 L -20.913 4.149 L -16.764 -16.764 L -12.451999999999998 -6.506 L -10.256999999999998 -4.311 z M -30.164 8.574 L -25.337000000000003 13.401 L 14.764999999999993 5.442 L 15.556999999999993 -2.37 L -5.531000000000008 -11.232 L -14.394000000000007 -32.32 L -22.206000000000007 -31.528 z" stroke-linecap="round" />
</g>
		<g transform="matrix(1.0987782907881312 0 0 -1.0987782907881314 71.51362795300656 71.51416359549799)"  >
<path style="stroke: none; stroke-width: 1; stroke-dasharray: none; stroke-linecap: butt; stroke-dashoffset: 0; stroke-linejoin: miter; stroke-miterlimit: 4; fill: rgb(19,93,135); fill-rule: nonzero; opacity: 1;"  paint-order="stroke"  transform=" translate(-3.9108750000050234, -3.9119375108481824)" d="M 0 0 C 2.16 -2.16 5.662 -2.16 7.823 0 C 9.982 2.16 9.983 5.663 7.823 7.823 C 5.662 9.984 2.159 9.984 -0.001 7.824 C -2.161 5.663 -2.161 2.161 0 0" stroke-linecap="round" />
</g>
		<g transform="matrix(1.0987782907881312 0 0 -1.0987782907881314 -62.420276165724886 -62.42060579921204)"  >
<path style="stroke: none; stroke-width: 1; stroke-dasharray: none; stroke-linecap: butt; stroke-dashoffset: 0; stroke-linejoin: miter; stroke-miterlimit: 4; fill: rgb(19,93,135); fill-rule: nonzero; opacity: 1;"  paint-order="stroke"  transform=" translate(-7.304500000000001, -9.459500000000002)" d="M 0 0 L 20.914 -4.15 L 16.763 16.764 L 12.452 6.506 L 10.257 4.311 Z M 30.165 -8.574 L 25.337 -13.401 L -14.764999999999997 -5.442 L -15.555999999999997 2.37 L 5.531000000000002 11.232 L 14.394000000000002 32.32 L 22.206000000000003 31.528 z" stroke-linecap="round" />
</g>
		<g transform="matrix(1.0987782907881312 0 0 -1.0987782907881314 -71.51349060572579 -71.5138889247649)"  >
<path style="stroke: none; stroke-width: 1; stroke-dasharray: none; stroke-linecap: butt; stroke-dashoffset: 0; stroke-linejoin: miter; stroke-miterlimit: 4; fill: rgb(19,93,135); fill-rule: nonzero; opacity: 1;"  paint-order="stroke"  transform=" translate(3.910750000010042, 3.9121874891518154)" d="M 0 0 C -2.16 2.16 -5.662 2.16 -7.823 -0.001 C -9.983 -2.1599999999999997 -9.983 -5.664000000000001 -7.824000000000001 -7.823 C -5.662000000000001 -9.985 -2.1590000000000007 -9.984 0.0009999999999994458 -7.824000000000001 C 2.162 -5.664 2.162 -2.161 0 0" stroke-linecap="round" />
</g>
</g>
</g>
<g transform="matrix(1.9211538461538462 0 0 1.9211538461538462 640.3525617487982 703.5269593167918)" id="text-logo"  >
<g style=""  paint-order="stroke"   >
		<g transform="matrix(1 0 0 1 -5.684342e-14 0)" id="text-logo-path-0"  >
<path style="stroke: none; stroke-width: 0; stroke-dasharray: none; stroke-linecap: butt; stroke-dashoffset: 0; stroke-linejoin: miter; stroke-miterlimit: 4; fill: rgb(19,93,135); fill-rule: nonzero; opacity: 1;"  paint-order="stroke"  transform=" translate(-162.35000000000002, 26.225)" d="M 3.96 0 L 15.31 0 L 15.31 -20.57 L 24.44 -20.57 C 31.13 -20.61 34.49 -24.17 34.49 -31.28 L 34.49 -41.73 C 34.49 -48.85 31.13 -52.4 24.44 -52.4 L 3.96 -52.4 Z M 21.63 -28.36 L 15.31 -28.36 L 15.31 -44.61 L 21.63 -44.61 C 22.46 -44.61 23.18 -43.82 23.18 -42.99 L 23.18 -29.98 C 23.18 -29.15 22.46 -28.36 21.63 -28.36 Z M 44.36 -42.52 L 44.36 0 L 55.71 0 L 55.71 -17.56 L 63.89 -17.56 L 63.89 0 L 75.25 0 L 75.25 -42.52 C 75.25 -49.68 71.88 -53.24 65.2 -53.24 L 54.4 -53.24 C 47.72 -53.2 44.36 -49.64 44.36 -42.52 Z M 55.71 -26.34 L 55.71 -43.9 C 55.71 -44.73 56.42 -45.52 57.25 -45.52 L 62.35 -45.52 C 63.18 -45.52 63.89 -44.73 63.89 -43.9 L 63.89 -26.34 Z M 84.88 -42.75 L 93.38 -42.75 L 93.38 0 L 104.69 0 L 104.69 -42.75 L 113.19 -42.75 L 113.19 -52.4 L 84.88 -52.4 Z M 122.51 -9.89 C 122.51 -2.77 125.87 0.79 132.55 0.79 L 142.6 0.79 C 149.28 0.79 152.65 -2.77 152.65 -9.89 L 152.65 -52.4 L 141.29 -52.4 L 141.29 -8.9 C 141.29 -8.07 140.62 -7.28 139.79 -7.28 L 135.4 -7.28 C 134.57 -7.28 133.86 -8.07 133.86 -8.9 L 133.86 -52.4 L 122.51 -52.4 Z M 164.53 -42.52 L 164.53 0 L 175.88 0 L 175.88 -43.51 C 175.88 -44.34 176.59 -45.13 177.42 -45.13 L 181.81 -45.13 C 182.64 -45.13 183.32 -44.34 183.32 -43.51 L 183.32 0 L 194.67 0 L 194.67 -42.52 C 194.67 -49.68 191.31 -53.24 184.62 -53.24 L 174.58 -53.24 C 167.89 -53.2 164.53 -49.64 164.53 -42.52 Z M 206.47 -42.52 L 206.47 -9.89 C 206.47 -2.77 209.84 0.79 216.52 0.79 L 226.72 0.79 C 233.41 0.79 236.77 -2.77 236.77 -9.89 L 236.77 -29.15 L 221.78 -29.15 L 221.78 -20.8 L 226.01 -20.8 L 226.01 -8.58 C 226.01 -7.75 225.3 -6.96 224.47 -6.96 L 219.37 -6.96 C 218.54 -6.96 217.83 -7.75 217.83 -8.58 L 217.83 -43.9 C 217.83 -44.73 218.54 -45.52 219.37 -45.52 L 224.47 -45.52 C 225.3 -45.52 226.01 -44.73 226.01 -43.9 L 226.01 -37.57 L 236.77 -37.57 L 236.77 -42.52 C 236.77 -49.68 233.41 -53.24 226.72 -53.24 L 216.52 -53.24 C 209.84 -53.2 206.47 -49.64 206.47 -42.52 Z M 247.19 -42.52 L 247.19 0 L 258.54 0 L 258.54 -17.56 L 266.73 -17.56 L 266.73 0 L 278.08 0 L 278.08 -42.52 C 278.08 -49.68 274.72 -53.24 268.03 -53.24 L 257.24 -53.24 C 250.55 -53.2 247.19 -49.64 247.19 -42.52 Z M 258.54 -26.34 L 258.54 -43.9 C 258.54 -44.73 259.25 -45.52 260.08 -45.52 L 265.19 -45.52 C 266.02 -45.52 266.73 -44.73 266.73 -43.9 L 266.73 -26.34 Z M 290.6 -42.52 L 290.6 0 L 301.95 0 L 301.95 -43.51 C 301.95 -44.34 302.66 -45.13 303.49 -45.13 L 307.88 -45.13 C 308.71 -45.13 309.38 -44.34 309.38 -43.51 L 309.38 0 L 320.74 0 L 320.74 -42.52 C 320.74 -49.68 317.37 -53.24 310.69 -53.24 L 300.64 -53.24 C 293.96 -53.2 290.6 -49.64 290.6 -42.52 Z" stroke-linecap="round" />
</g>
</g>
</g>
<g transform="matrix(1.9211538461538462 0 0 1.9211538461538462 640 806.9482416531523)" id="tagline-111618aa-34ca-4db8-b583-5788a972ff65-logo"  >
<g style=""  paint-order="stroke"   >
		<g transform="matrix(1 0 0 1 0 0)" id="tagline-111618aa-34ca-4db8-b583-5788a972ff65-logo-path-0"  >
<path style="stroke: none; stroke-width: 0; stroke-dasharray: none; stroke-linecap: butt; stroke-dashoffset: 0; stroke-linejoin: miter; stroke-miterlimit: 4; fill: rgb(19,93,135); fill-rule: nonzero; opacity: 1;"  paint-order="stroke"  transform=" translate(-211.66000000000003, 11.55)" d="M 3.33 -23.1 L 3.33 0 L 5.64 0 L 5.64 -9.77 L 6.34 -10.86 L 11.91 0 L 14.39 0 L 7.69 -13.04 L 13.93 -23.1 L 11.45 -23.1 L 5.64 -13.76 L 5.64 -23.1 Z M 32.77 -23.1 L 32.77 0 L 42.67 0 L 42.67 -1.98 L 35.08 -1.98 L 35.08 -10.56 L 40.69 -10.56 L 40.69 -12.54 L 35.08 -12.54 L 35.08 -21.12 L 42.34 -21.12 L 42.34 -23.1 Z M 62.04 -23.1 L 62.04 0 L 70.29 0 L 70.29 -1.98 L 64.35 -1.98 L 64.35 -23.1 Z M 88.18 -18.15 L 88.18 -4.95 C 88.18 -0.53 90.68 0.33 93.79 0.33 C 96.92 0.33 99.4 -0.59 99.4 -4.95 L 99.4 -18.15 C 99.4 -22.57 96.92 -23.43 93.79 -23.43 C 90.68 -23.43 88.18 -22.57 88.18 -18.15 Z M 90.49 -5.61 L 90.49 -17.49 C 90.49 -20.49 91.77 -21.12 93.79 -21.12 C 95.8 -21.12 97.09 -20.49 97.09 -17.49 L 97.09 -5.61 C 97.09 -2.61 95.8 -1.98 93.79 -1.98 C 91.77 -1.98 90.49 -2.61 90.49 -5.61 Z M 119.92 -23.1 L 119.92 0 L 128.17 0 L 128.17 -1.98 L 122.23 -1.98 L 122.23 -23.1 Z M 144.57 0 L 146.88 0 L 148.2 -6.27 L 154.11 -6.27 L 155.43 0 L 157.74 0 L 152.89 -23.1 L 149.42 -23.1 Z M 148.63 -8.25 L 151.17 -20.36 L 153.71 -8.25 Z M 197.47 0 L 199.78 0 L 199.78 -8.25 L 202.09 -8.25 C 205.23 -8.25 207.7 -9.17 207.7 -13.53 L 207.7 -17.82 C 207.7 -22.24 205.23 -23.1 202.09 -23.1 L 197.47 -23.1 Z M 199.78 -10.23 L 199.78 -21.12 L 202.09 -21.12 C 204.1 -21.12 205.39 -20.49 205.39 -17.49 L 205.39 -13.86 C 205.39 -10.86 204.1 -10.23 202.09 -10.23 Z M 224.76 0 L 227.07 0 L 228.39 -6.27 L 234.3 -6.27 L 235.62 0 L 237.93 0 L 233.08 -23.1 L 229.61 -23.1 Z M 228.82 -8.25 L 231.36 -20.36 L 233.9 -8.25 Z M 263.57 -23.1 L 252.68 -23.1 L 252.68 -21.12 L 256.97 -21.12 L 256.97 0 L 259.28 0 L 259.28 -21.12 L 263.57 -21.12 Z M 284.26 -5.61 L 284.26 -23.1 L 281.95 -23.1 L 281.95 -4.95 C 281.95 -0.53 284.46 0.33 287.56 0.33 C 290.7 0.33 293.17 -0.53 293.17 -4.95 L 293.17 -23.1 L 290.86 -23.1 L 290.86 -5.61 C 290.86 -2.61 289.57 -1.98 287.56 -1.98 C 285.55 -1.98 284.26 -2.61 284.26 -5.61 Z M 313.86 -23.1 L 313.86 0 L 316.17 0 L 316.17 -17.49 L 323.37 0 L 325.68 0 L 325.68 -23.1 L 323.37 -23.1 L 323.37 -5.61 L 316.17 -23.1 Z M 357.42 -11.55 L 351.48 -11.55 L 351.48 -9.57 L 355.11 -9.57 L 355.11 -5.61 C 355.11 -2.61 353.83 -1.98 351.81 -1.98 C 349.8 -1.98 348.51 -2.61 348.51 -5.61 L 348.51 -17.49 C 348.51 -20.49 349.8 -21.12 351.81 -21.12 C 353.83 -21.12 355.11 -20.49 355.11 -17.49 L 355.11 -14.19 L 357.42 -14.19 L 357.42 -18.15 C 357.42 -22.57 354.95 -23.43 351.81 -23.43 C 348.71 -23.43 346.2 -22.57 346.2 -18.15 L 346.2 -4.95 C 346.2 -0.53 348.71 0.33 351.81 0.33 C 352.84 0.33 354.45 -0.1 355.34 -1.91 L 356.1 0 L 357.42 0 Z M 375.97 0 L 378.28 0 L 379.6 -6.27 L 385.51 -6.27 L 386.83 0 L 389.14 0 L 384.28 -23.1 L 380.82 -23.1 Z M 380.03 -8.25 L 382.57 -20.36 L 385.11 -8.25 Z M 408.18 -23.1 L 408.18 0 L 410.49 0 L 410.49 -17.49 L 417.68 0 L 419.99 0 L 419.99 -23.1 L 417.68 -23.1 L 417.68 -5.61 L 410.49 -23.1 Z" stroke-linecap="round" />
</g>
</g>
</g>
</svg>